# xmcd CD database file
#
# Track frame offsets:
#	187
#	21787
#	45870
#
# Disc length: 899 seconds
#
# Revision: 7
# Processed by: cddbd v1.5.1PL0 Copyright (c) Steve Scherf et al.
# Submitted via: CDex 1.50beta10
#
DISCID=15038103
DTITLE=森口博子 - 誘惑してよね夏だから
DYEAR=1994
DGENRE=J-POP
TTITLE0=誘惑してよね夏だから
TTITLE1=おそろいの痛手
TTITLE2=誘惑してよね夏だから(カラオケ)
EXTD=YEAR: 1994
EXTT0=
EXTT1=
EXTT2=
PLAYORDER=
